<?xml version="1.0" standalone="no"?>
<!DOCTYPE svg PUBLIC "-//W3C//DTD SVG 20010904//EN"
 "http://www.w3.org/TR/2001/REC-SVG-20010904/DTD/svg10.dtd">
<svg version="1.0" xmlns="http://www.w3.org/2000/svg"
 width="512.000000pt" height="512.000000pt" viewBox="0 0 512.000000 512.000000"
 preserveAspectRatio="xMidYMid meet">
<metadata>
Created by potrace 1.14, written by Peter Selinger 2001-2017
</metadata>
<g transform="translate(0.000000,512.000000) scale(0.100000,-0.100000)"
fill="#000000" stroke="none">
<path d="M2131 5110 c-31 -13 -68 -56 -74 -85 -2 -13 -2 -90 0 -171 3 -82 2
-147 -1 -144 -3 3 -28 57 -55 119 -57 128 -71 147 -112 156 -16 4 -27 10 -24
15 3 4 -16 2 -43 -6 -76 -22 -110 -72 -102 -148 1 -10 27 -74 57 -143 31 -69
52 -128 47 -132 -5 -4 -52 -23 -104 -40 -386 -132 -770 -406 -1033 -736 -27
-33 -54 -67 -60 -75 -42 -52 -153 -233 -205 -337 -131 -257 -204 -505 -240
-818 -9 -80 -9 -373 1 -460 15 -139 18 -162 43 -272 53 -238 132 -443 252
-653 48 -82 147 -235 162 -250 3 -3 24 -27 45 -55 187 -235 461 -463 715 -594
47 -24 86 -48 88 -53 2 -4 10 -8 18 -8 8 0 34 -9 57 -19 122 -55 242 -97 372
-129 309 -78 700 -90 1002 -32 32 6 69 13 83 16 102 20 331 99 470 162 29 13
66 20 105 20 54 0 222 9 300 16 35 4 158 19 165 21 3 1 28 5 55 9 28 4 77 15
110 23 33 8 70 17 82 19 38 7 196 65 248 91 237 120 375 291 392 486 11 139
-65 288 -241 471 -30 30 -46 55 -43 65 3 9 26 75 50 146 44 125 92 318 101
400 2 22 8 69 12 105 13 94 9 431 -4 530 -25 174 -75 394 -102 442 -6 10 -10
24 -10 32 0 39 -121 298 -203 436 -133 223 -333 456 -514 600 -10 8 -39 31
-64 51 -88 72 -278 188 -410 252 -124 60 -341 140 -449 165 -152 36 -296 58
-428 65 -34 2 -64 6 -66 8 -2 2 4 21 14 42 10 20 17 37 15 37 -2 0 9 32 26 71
39 96 38 139 -4 185 -43 47 -108 57 -160 25 -29 -17 -42 -39 -75 -119 -22 -53
-46 -114 -53 -134 -7 -21 -15 -35 -18 -33 -2 3 -6 65 -9 137 -4 144 -15 187
-56 213 -31 21 -93 28 -125 15z m729 -728 c63 -12 153 -33 200 -47 47 -14 92
-27 100 -30 48 -13 147 -53 230 -92 87 -42 288 -157 300 -172 3 -4 30 -25 60
-46 30 -22 66 -49 80 -60 46 -37 246 -240 279 -282 l33 -43 -26 0 c-14 0 -26
6 -26 13 0 7 -3 8 -8 2 -4 -5 -46 -11 -94 -11 -48 -1 -111 -7 -140 -14 -54
-13 -179 -59 -188 -69 -3 -3 -21 -15 -40 -26 -113 -63 -206 -185 -239 -316
-42 -164 4 -322 132 -450 89 -89 232 -165 347 -185 14 -3 36 -7 50 -10 51 -9
187 -4 262 10 121 23 246 84 328 160 44 40 45 39 54 -34 3 -25 8 -57 11 -72
10 -48 15 -152 15 -283 -1 -126 -3 -161 -15 -255 -12 -88 -17 -116 -31 -180
-9 -36 -17 -74 -20 -85 -8 -42 -47 -160 -54 -169 -9 -9 -60 43 -81 81 -10 18
-6 32 24 91 61 118 78 171 83 260 4 93 -9 132 -62 186 -51 52 -190 99 -354
120 -131 17 -139 21 -285 131 -122 92 -234 155 -310 173 -208 51 -316 24 -603
-151 -226 -138 -212 -133 -452 -142 -148 -6 -329 -33 -372 -56 -11 -6 -26 -8
-34 -5 -9 3 -12 1 -9 -4 3 -6 -4 -14 -17 -19 -35 -13 -93 -73 -119 -122 -42
-79 -34 -243 16 -339 21 -41 95 -142 112 -153 19 -12 109 -129 128 -167 29
-55 43 -132 39 -209 -2 -39 -6 -76 -9 -81 -3 -4 -46 5 -95 22 -50 16 -88 34
-85 39 4 5 0 6 -8 3 -8 -3 -58 11 -110 32 l-97 36 -82 157 c-169 322 -211 419
-248 565 -49 198 -26 360 90 631 67 155 90 224 90 268 0 47 6 46 13 -2 15 -91
117 -236 215 -303 86 -60 204 -108 307 -126 83 -15 307 -8 385 12 219 55 392
196 453 369 61 169 15 342 -127 482 -124 123 -301 193 -506 200 -197 6 -358
-36 -500 -130 -139 -93 -226 -232 -234 -373 -3 -50 -16 -87 -16 -45 0 28 -66
101 -108 119 -48 20 -105 20 -171 0 -30 -9 -55 -15 -57 -13 -1 1 2 25 6 54 10
60 6 141 -10 187 -23 71 -117 127 -200 120 -19 -2 -75 -24 -124 -49 l-88 -45
7 46 c12 83 34 153 57 181 31 38 216 223 256 256 19 15 39 24 44 21 7 -4 8 -2
4 4 -13 22 224 179 394 259 136 65 254 108 393 143 109 27 148 34 252 46 28 3
52 8 54 10 2 2 101 2 220 0 167 -2 242 -8 331 -24z m-510 -1023 c173 -7 341
-96 387 -207 99 -236 -300 -440 -632 -323 -270 95 -314 325 -88 457 54 32 135
60 198 69 27 3 51 8 54 10 2 3 7 3 10 1 4 -3 36 -6 71 -7z m1777 -9 c124 -21
247 -111 276 -201 22 -66 21 -97 -2 -151 -83 -187 -387 -261 -609 -149 -61 31
-122 87 -148 136 -82 157 72 343 308 372 65 9 87 8 175 -7z m-3122 -152 c-3
-18 -8 -67 -11 -108 -5 -63 -2 -81 15 -114 11 -21 18 -43 15 -48 -3 -5 -2 -7
3 -6 4 2 26 -8 48 -22 32 -20 52 -25 100 -23 33 0 79 8 103 17 23 8 42 12 42
8 0 -6 -61 -151 -90 -217 -13 -28 -60 -193 -65 -230 -17 -110 -20 -204 -10
-290 13 -106 61 -284 104 -380 5 -11 21 -47 36 -80 14 -33 29 -67 34 -75 4 -8
24 -44 43 -80 173 -322 169 -312 170 -450 0 -95 -7 -207 -17 -258 -2 -11 -6
-36 -9 -56 -18 -113 -54 -236 -69 -236 -43 1 -345 243 -457 367 -41 46 -82 91
-91 100 -30 34 -125 168 -171 243 -44 71 -97 177 -151 300 -33 75 -100 300
-112 375 -16 99 -26 168 -30 210 -6 61 -6 325 0 380 7 68 16 129 20 145 2 8 6
31 9 52 14 93 73 288 121 403 10 22 21 50 26 63 l9 23 25 -29 c27 -33 87 -65
119 -64 44 0 104 23 171 67 39 25 71 45 73 45 2 0 1 -15 -3 -32z m2385 -763
c61 -13 134 -54 230 -126 190 -145 242 -167 450 -195 19 -2 49 -7 65 -11 17
-4 35 -8 41 -9 67 -12 69 -31 11 -144 -71 -138 -85 -205 -61 -289 22 -75 81
-150 266 -336 242 -244 298 -318 298 -397 0 -194 -303 -357 -768 -413 -216
-26 -736 -26 -944 0 -102 13 -127 17 -183 26 -220 38 -376 110 -422 194 -33
61 -26 195 17 357 14 49 16 64 27 163 14 141 -1 242 -55 365 -20 47 -98 159
-136 196 -103 102 -147 188 -124 240 19 42 104 63 275 69 154 6 259 13 292 20
73 14 189 68 294 137 32 21 60 38 63 38 2 0 30 17 61 37 127 81 202 100 303
78z m-1515 -1390 c39 -18 192 -65 210 -65 11 0 13 -22 12 -107 -1 -60 2 -123
6 -140 41 -183 178 -311 412 -386 74 -24 188 -52 242 -60 25 -4 40 -13 21 -14
-7 0 -56 -4 -108 -8 -145 -12 -385 -7 -450 10 -8 2 -31 6 -50 9 -66 11 -95 17
-174 37 -92 23 -249 75 -289 96 -27 13 -27 14 -11 51 49 117 100 398 99 545 0
57 0 58 25 52 14 -4 39 -13 55 -20z"/>
<path d="M2214 3140 c-12 -5 -34 -25 -49 -44 -23 -31 -27 -43 -22 -82 11 -99
110 -139 200 -80 39 26 50 89 27 150 -19 51 -99 79 -156 56z"/>
<path d="M3943 3135 c-90 -39 -89 -175 1 -219 31 -15 85 -13 118 5 28 15 58
69 58 104 0 61 -64 126 -122 125 -13 -1 -37 -7 -55 -15z"/>
<path d="M3005 2092 c-26 -6 -67 -38 -82 -65 -54 -97 93 -302 232 -323 48 -7
111 19 132 55 16 25 33 99 24 103 -3 2 -13 17 -22 33 -9 17 -37 40 -61 53 -27
14 -54 40 -71 67 -41 64 -93 90 -152 77z"/>
<path d="M3584 2086 c-36 -13 -51 -27 -83 -80 -13 -21 -38 -44 -55 -52 -83
-37 -112 -105 -75 -180 64 -132 256 -71 357 113 38 71 29 143 -25 180 -37 26
-81 33 -119 19z"/>
</g>
</svg>
